<svg width="33" height="33" viewBox="0 0 33 33" fill="none" xmlns="http://www.w3.org/2000/svg">
<path d="M16.3086 7.94421C11.6818 7.94421 7.94971 11.6771 7.94971 16.305C7.94971 20.9329 11.6818 24.6658 16.3086 24.6658C20.9355 24.6658 24.6676 20.9329 24.6676 16.305C24.6676 11.6771 20.9355 7.94421 16.3086 7.94421ZM16.3086 21.7406C13.3186 21.7406 10.8742 19.303 10.8742 16.305C10.8742 13.307 13.3114 10.8694 16.3086 10.8694C19.3059 10.8694 21.743 13.307 21.743 16.305C21.743 19.303 19.2986 21.7406 16.3086 21.7406ZM26.9592 7.60221C26.9592 8.68642 26.0862 9.55233 25.0095 9.55233C23.9255 9.55233 23.0598 8.67914 23.0598 7.60221C23.0598 6.52527 23.9328 5.65208 25.0095 5.65208C26.0862 5.65208 26.9592 6.52527 26.9592 7.60221ZM32.4954 9.58144C32.3717 6.96915 31.7752 4.65519 29.8619 2.74873C27.9558 0.842264 25.6424 0.245585 23.0307 0.114606C20.339 -0.0382021 12.271 -0.0382021 9.5793 0.114606C6.97487 0.238308 4.66143 0.834988 2.74812 2.74145C0.834802 4.64792 0.24553 6.96187 0.114581 9.57416C-0.0381935 12.2665 -0.0381935 20.3362 0.114581 23.0286C0.238255 25.6409 0.834802 27.9548 2.74812 29.8613C4.66143 31.7677 6.96759 32.3644 9.5793 32.4954C12.271 32.6482 20.339 32.6482 23.0307 32.4954C25.6424 32.3717 27.9558 31.775 29.8619 29.8613C31.7679 27.9548 32.3645 25.6409 32.4954 23.0286C32.6482 20.3362 32.6482 12.2738 32.4954 9.58144ZM29.018 25.9174C28.4505 27.3436 27.352 28.4423 25.9189 29.0172C23.7727 29.8685 18.6803 29.6721 16.3086 29.6721C13.937 29.6721 8.83726 29.8613 6.69842 29.0172C5.27253 28.4496 4.17401 27.3509 3.59929 25.9174C2.74812 23.7708 2.94454 18.6772 2.94454 16.305C2.94454 13.9328 2.75539 8.83195 3.59929 6.69264C4.16673 5.26643 5.26525 4.16766 6.69842 3.59281C8.84453 2.74145 13.937 2.93792 16.3086 2.93792C18.6803 2.93792 23.78 2.74873 25.9189 3.59281C27.3448 4.16039 28.4433 5.25915 29.018 6.69264C29.8692 8.83923 29.6727 13.9328 29.6727 16.305C29.6727 18.6772 29.8692 23.778 29.018 25.9174Z" fill="url(#paint0_linear_15_64)"/>
<defs>
<linearGradient id="paint0_linear_15_64" x1="16.305" y1="0" x2="16.305" y2="32.61" gradientUnits="userSpaceOnUse">
<stop offset="0.125" stop-color="#481BC6"/>
<stop offset="0.3125" stop-color="#7B32C3"/>
<stop offset="0.557292" stop-color="#C13584"/>
<stop offset="0.9998" stop-color="#F0B110" stop-opacity="0.70129"/>
<stop offset="0.9999" stop-color="#2C240E" stop-opacity="0.230769"/>
<stop offset="1" stop-color="#C13584" stop-opacity="0"/>
</linearGradient>
</defs>
</svg>
