
<svg width="24" height="24" viewBox="0 0 24 24" fill="none" xmlns="http://www.w3.org/2000/svg">
<path d="M19 3H9C7.114 3 6.172 3 5.586 3.586C5 4.172 5 5.114 5 7V17" stroke="#ED510F" stroke-width="2" stroke-linecap="round" stroke-linejoin="round"/>
<path d="M14 17V19C14 19.5304 14.2107 20.0391 14.5858 20.4142C14.9609 20.7893 15.4696 21 16 21C16.5304 21 17.0391 20.7893 17.4142 20.4142C17.7893 20.0391 18 19.5304 18 19V4.5C18 4.10218 18.158 3.72064 18.4393 3.43934C18.7206 3.15804 19.1022 3 19.5 3C19.8978 3 20.2794 3.15804 20.5607 3.43934C20.842 3.72064 21 4.10218 21 4.5C21 4.89782 20.842 5.27936 20.5607 5.56066C20.2794 5.84196 19.8978 6 19.5 6H18.5" stroke="#ED510F" stroke-width="2" stroke-linecap="round" stroke-linejoin="round"/>
<path d="M16 21H5C4.46957 21 3.96086 20.7893 3.58579 20.4142C3.21071 20.0391 3 19.5304 3 19C3 18.4696 3.21071 17.9609 3.58579 17.5858C3.96086 17.2107 4.46957 17 5 17H14M9 7H14M9 11H14" stroke="#ED510F" stroke-width="2" stroke-linecap="round" stroke-linejoin="round"/>
</svg>
